<svg width="21" height="14" viewBox="0 0 21 14" fill="none" xmlns="http://www.w3.org/2000/svg">
<path d="M6.50971 4.75265H14.4901V6.74774H6.50971V4.75265ZM18.5801 5.75019H20.4754C20.4754 2.99696 18.2409 0.762451 15.4877 0.762451H11.4975V2.65779H15.4877C17.1935 2.65779 18.5801 4.04439 18.5801 5.75019ZM2.41976 5.75019C2.41976 4.04439 3.80635 2.65779 5.51216 2.65779H9.50236V0.762451H5.51216C2.75892 0.762451 0.524414 2.99696 0.524414 5.75019C0.524414 8.50343 2.75892 10.7379 5.51216 10.7379H9.50236V8.8426H5.51216C3.80635 8.8426 2.41976 7.456 2.41976 5.75019ZM17.4827 5.75019H15.4877V8.74284H12.495V10.7379H15.4877V13.7306H17.4827V10.7379H20.4754V8.74284H17.4827V5.75019Z" fill="#0078CE"/>
</svg>
