<svg width="56" height="36" viewBox="0 0 56 36" fill="none" xmlns="http://www.w3.org/2000/svg">
<path d="M45.5 9.5C45.5 5.90843 42.5916 3 39 3C35.4084 3 32.5 5.90843 32.5 9.5C32.5 13.0916 35.4084 16 39 16C42.5916 16 45.5 13.0916 45.5 9.5ZM48.5 9.5C48.5 14.7484 44.2484 19 39 19C33.7516 19 29.5 14.7484 29.5 9.5C29.5 4.25157 33.7516 0 39 0C44.2484 0 48.5 4.25157 48.5 9.5ZM26 31.0714C26 33.0034 25.9969 33 27.1471 33H51.8529C53.0031 33 53 33.0034 53 31.0714C53 26.5654 46.838 24 39.5 24C32.162 24 26 26.5654 26 31.0714ZM39.5 21C48.3384 21 56 24.1897 56 31.0714C56 34.6037 54.7224 36 51.8529 36H27.1471C24.2776 36 23 34.6037 23 31.0714C23 24.1897 30.6616 21 39.5 21ZM12 4C12.8284 4 13.5 4.67157 13.5 5.5V14H22C22.8284 14 23.5 14.6716 23.5 15.5C23.5 16.3284 22.8284 17 22 17H13.5V25.5C13.5 26.3284 12.8284 27 12 27C11.1716 27 10.5 26.3284 10.5 25.5V17H2C1.17157 17 0.5 16.3284 0.5 15.5C0.5 14.6716 1.17157 14 2 14H10.5V5.5C10.5 4.67157 11.1716 4 12 4Z" fill="#99A2AD"/>
</svg>
