<svg width="16" height="19" viewBox="0 0 16 19" fill="none" xmlns="http://www.w3.org/2000/svg">
<path d="M8.0625 0.75C3.95875 0.75 0.625 4.08375 0.625 8.1875C0.625 12.2913 3.95875 15.625 8.0625 15.625H8.5V18.25C12.7525 16.2025 15.5 12.125 15.5 8.1875C15.5 4.08375 12.1663 0.75 8.0625 0.75ZM8.9375 13.4375H7.1875V11.6875H8.9375V13.4375ZM8.9375 10.375H7.1875C7.1875 7.53125 9.8125 7.75 9.8125 6C9.8125 5.0375 9.025 4.25 8.0625 4.25C7.1 4.25 6.3125 5.0375 6.3125 6H4.5625C4.5625 4.06625 6.12875 2.5 8.0625 2.5C9.99625 2.5 11.5625 4.06625 11.5625 6C11.5625 8.1875 8.9375 8.40625 8.9375 10.375Z" fill="#2E5193"/>
</svg>
