<svg width="25" height="24" viewBox="0 0 25 24" fill="none" xmlns="http://www.w3.org/2000/svg">
<path fill-rule="evenodd" clip-rule="evenodd" d="M10.4542 18.472C9.4318 19.3117 7.8475 19.9898 5.6967 20.5243C5.54832 20.5612 5.39241 20.5539 5.24809 20.5034C5.10378 20.4529 4.97734 20.3614 4.8843 20.2401C4.79126 20.1188 4.73566 19.9729 4.72432 19.8205C4.71299 19.668 4.74642 19.5155 4.8205 19.3818C5.5515 18.0623 6.0093 16.9951 6.1954 16.1933C4.7951 14.8108 4 13.0109 4 11.0968C4 6.887 7.818 3.5 12.5 3.5C17.182 3.5 21 6.887 21 11.0968C21 15.3065 17.182 18.6935 12.5 18.6935C11.8121 18.6941 11.1261 18.6198 10.4542 18.4721V18.472Z" stroke="#528BCC" stroke-linecap="round" stroke-linejoin="round"/>
<path fill-rule="evenodd" clip-rule="evenodd" d="M5.6129 19.8085C5.61117 19.8116 5.60944 19.8147 5.6077 19.8178C5.61271 19.8088 5.61647 19.7991 5.6189 19.7891L5.6129 19.8085ZM5.7349 19.5859C7.7665 19.0581 9.2065 18.4014 10.0509 17.6313L10.2094 17.4867L10.4176 17.5388C11.0986 17.7087 11.798 17.7942 12.4999 17.7934C16.7072 17.7934 20.0999 14.7838 20.0999 11.0967C20.0999 7.4095 16.7072 4.3999 12.4999 4.3999C8.2926 4.3999 4.8999 7.4095 4.8999 11.0967C4.8999 12.8437 5.6629 14.4871 7.0107 15.7272L7.1706 15.8744L7.1342 16.0886C6.9818 16.9858 6.5148 18.1476 5.7348 19.5859H5.7349Z" stroke="#528BCC" stroke-width="0.8" stroke-linecap="round"/>
<path d="M10.3205 17.927C9.383 18.782 7.8015 19.486 5.5761 20.039C5.52221 20.0524 5.46558 20.0497 5.41317 20.0314C5.36075 20.0131 5.31484 19.9798 5.28105 19.9357C5.24726 19.8917 5.22707 19.8387 5.22296 19.7833C5.21885 19.7279 5.23099 19.6726 5.2579 19.624V19.6241C6.0945 18.1141 6.5885 16.9133 6.7399 16.0217C5.353 14.7455 4.5 13.0095 4.5 11.0967C4.5 7.1774 8.0817 4 12.5 4C16.9183 4 20.5 7.1773 20.5 11.0968C20.5 15.0162 16.9183 18.1935 12.5 18.1935C11.7653 18.1943 11.0333 18.1048 10.3205 17.9269V17.927Z" stroke="#528BCC" stroke-linecap="round" stroke-linejoin="round"/>
</svg>
