<svg width="45" height="35" viewBox="0 0 45 35" fill="none" xmlns="http://www.w3.org/2000/svg">
<path d="M42.1154 5.96161H33.9398L32.1975 1.31542C31.9442 0.639845 31.2984 0.192383 30.5769 0.192383H14.4231C13.7016 0.192383 13.0558 0.639845 12.8025 1.31542L11.0602 5.96161H2.88462C1.2915 5.96161 0 7.25311 0 8.84623V31.9232C0 33.5163 1.2915 34.8078 2.88462 34.8078H42.1154C43.7085 34.8078 45 33.5163 45 31.9232V8.84623C45 7.25311 43.7085 5.96161 42.1154 5.96161ZM22.5 9.42315C28.5442 9.42315 33.4615 14.3405 33.4615 20.3847C33.4615 26.4289 28.5442 31.3462 22.5 31.3462C16.4558 31.3462 11.5385 26.4289 11.5385 20.3847C11.5385 14.3405 16.4558 9.42315 22.5 9.42315Z" fill="#C4C4C4"/>
<path d="M14.9995 20.3848C14.9995 24.5203 18.364 27.8848 22.4995 27.8848C26.635 27.8848 29.9995 24.5203 29.9995 20.3848C29.9995 16.2493 26.635 12.8848 22.4995 12.8848C18.364 12.8848 14.9995 16.2493 14.9995 20.3848Z" fill="#C4C4C4"/>
</svg>
