<svg width="12" height="13" viewBox="0 0 12 13" fill="none" xmlns="http://www.w3.org/2000/svg">
<path d="M7.19824 10.9697H4.36816V13H2.15332V10.9697H0.351562V9.18555H2.15332V8.24512H0.351562V6.46094H2.15332V0.203125H7.04883C8.46094 0.203125 9.58887 0.572266 10.4326 1.31055C11.2764 2.04297 11.6982 3.01855 11.6982 4.2373C11.6982 5.47949 11.2969 6.45508 10.4941 7.16406C9.69141 7.86719 8.5752 8.22754 7.14551 8.24512H4.36816V9.18555H7.19824V10.9697ZM4.36816 6.46094H7.01367C7.81055 6.46094 8.41992 6.27637 8.8418 5.90723C9.26367 5.53809 9.47461 4.9873 9.47461 4.25488C9.47461 3.59863 9.2666 3.0625 8.85059 2.64648C8.44043 2.23047 7.87207 2.01367 7.14551 1.99609H4.36816V6.46094Z" fill="#262626"/>
</svg>
