<svg width="24" height="24" viewBox="0 0 24 24" fill="none" xmlns="http://www.w3.org/2000/svg">
<g opacity="0.6">
<path d="M12.1081 8.62493C6.83574 8.92248 3.46459 11.883 2.16591 17.3541C2.07245 17.7478 2.20099 18.1612 2.50126 18.4325C2.95549 18.843 3.65646 18.8075 4.06691 18.3532C5.42376 16.8515 8.0984 16.0069 12.1081 15.8989V18.7352C12.1081 19.0369 12.2174 19.3283 12.4157 19.5556C12.8688 20.0747 13.6569 20.1283 14.1761 19.6752L21.5498 13.24C21.6123 13.1829 21.6123 13.1829 21.6694 13.1204C22.1225 12.6012 22.0689 11.8131 21.5498 11.36L14.1761 4.92482C13.9488 4.72648 13.6574 4.61719 13.3557 4.61719C12.6667 4.61719 12.1081 5.17577 12.1081 5.86482V8.62493ZM2.73126 17.1463L2.12786 17.8141L2.79574 18.4176L3.39914 17.7498L2.73138 17.1464C2.98742 16.8631 3.4247 16.8409 3.70806 17.097C3.89537 17.2663 3.97556 17.5241 3.91725 17.7698C4.09327 17.0282 4.30893 16.344 4.56489 15.7164C3.84269 16.1169 3.23134 16.5929 2.73126 17.1463ZM13.0081 10.4H13.9081V7.08002L19.8893 12.3L13.9081 17.52V14.087H13.0081C9.36424 14.087 6.54704 14.6172 4.56489 15.7164C6.02547 12.1353 8.79849 10.4 13.0081 10.4Z" fill="#55677D"/>
</g>
</svg>
