<svg width="24" height="24" viewBox="0 0 24 24" fill="none" xmlns="http://www.w3.org/2000/svg">
<g opacity="0.6">
<path d="M15.5615 7.6142L19.6848 8.01968C21.5323 8.20137 22.1151 10.1219 20.7164 11.3134L17.4782 14.0719L18.6917 18.6084C19.1908 20.4739 17.4758 21.6712 15.9038 20.5331L12.0006 17.7071L8.09731 20.5331C6.52486 21.6716 4.81091 20.4719 5.30938 18.6084L6.5229 14.0719L3.28476 11.3134C1.87562 10.113 2.46956 8.2013 4.31608 8.01968L8.4386 7.6142L10.2707 3.28453C10.9955 1.57169 13.0025 1.56408 13.7303 3.28473L15.5615 7.6142ZM7.0493 19.0696L11.766 15.6547C11.9059 15.5533 12.0952 15.5533 12.2351 15.6547L16.9518 19.0696L15.5109 13.6829C15.471 13.5338 15.5204 13.3751 15.6379 13.2751L19.5491 9.94319C19.7469 9.77469 19.7656 9.83631 19.5086 9.81104L14.5572 9.32412C14.4113 9.30977 14.285 9.21683 14.2279 9.08186L12.0725 3.98593C11.966 3.73425 12.035 3.73399 11.9284 3.98599L9.77206 9.08192C9.71496 9.21685 9.58865 9.30977 9.44283 9.32412L4.49228 9.81104C4.22883 9.83695 4.24944 9.77061 4.45202 9.94319L8.36322 13.2751C8.48069 13.3751 8.53012 13.5338 8.49024 13.6829L7.0493 19.0696Z" fill="#55677D"/>
</g>
</svg>
