<svg width="24" height="24" viewBox="0 0 24 24" fill="none" xmlns="http://www.w3.org/2000/svg">
<g opacity="0.6">
<path fill-rule="evenodd" clip-rule="evenodd" d="M14.453 3.10095L14.7706 3.10978C15.0046 3.1215 15.1728 3.14505 15.3561 3.18729C15.6514 3.25537 15.9196 3.36645 16.1766 3.52717C16.3999 3.66681 16.5763 3.81144 16.8762 4.10465L19.8954 7.12389L20.1137 7.35466C20.2709 7.5284 20.3732 7.66399 20.4729 7.82347C20.6336 8.08047 20.7447 8.34863 20.8128 8.64401C20.8719 8.90062 20.8944 9.12767 20.8991 9.54703V14.4529L20.8903 14.7704C20.8786 15.0044 20.855 15.1726 20.8128 15.3559C20.7447 15.6513 20.6336 15.9195 20.4729 16.1765C20.3333 16.3997 20.1886 16.5762 19.8954 16.8761L16.8762 19.8953L16.6454 20.1136C16.4717 20.2707 16.3361 20.373 16.1766 20.4728C15.9196 20.6335 15.6514 20.7446 15.3561 20.8126C15.0994 20.8718 14.8724 20.8943 14.453 20.899H9.54715L9.22962 20.8902C8.99564 20.8784 8.82743 20.8549 8.64413 20.8126C8.34875 20.7446 8.0806 20.6335 7.8236 20.4728C7.60032 20.3331 7.42387 20.1885 7.12401 19.8953L4.10477 16.8761L3.88649 16.6453C3.72932 16.4715 3.62703 16.336 3.52729 16.1765C3.36657 15.9195 3.25549 15.6513 3.18742 15.3559C3.12827 15.0993 3.10577 14.8723 3.10107 14.4529V9.54703L3.1099 9.2295C3.12162 8.99551 3.14517 8.82731 3.18742 8.64401C3.25549 8.34863 3.36657 8.08047 3.52729 7.82347C3.66693 7.6002 3.81156 7.42375 4.10477 7.12389L7.12401 4.10465L7.35478 3.88637C7.52852 3.7292 7.66411 3.62691 7.8236 3.52717C8.0806 3.36645 8.34875 3.25537 8.64413 3.18729C8.90075 3.12815 9.12779 3.10565 9.54715 3.10095H14.453ZM14.2609 4.89997L9.59372 4.90048L9.37031 4.90488C9.2778 4.90833 9.21066 4.91379 9.1536 4.92178L9.04839 4.94131C8.94778 4.9645 8.86556 4.99856 8.77802 5.0533C8.69028 5.10817 8.61109 5.17091 8.45084 5.32499L5.51274 8.26012C5.28848 8.48438 5.1834 8.59769 5.11401 8.68969L5.05342 8.7779C4.99868 8.86543 4.96462 8.94766 4.94143 9.04826L4.9219 9.15348C4.90858 9.24858 4.90232 9.37167 4.9006 9.5936L4.90162 14.4956C4.90425 14.6629 4.91048 14.765 4.9219 14.8465L4.94143 14.9517C4.96462 15.0523 4.99868 15.1345 5.05342 15.222C5.1083 15.3098 5.17103 15.389 5.32512 15.5492L8.26024 18.4873C8.4845 18.7116 8.59781 18.8167 8.68981 18.8861L8.77802 18.9466C8.86556 19.0014 8.94778 19.0354 9.04839 19.0586L9.1536 19.0782C9.26772 19.0942 9.42215 19.1 9.7393 19.1L14.4957 19.0984C14.663 19.0958 14.7651 19.0896 14.8466 19.0782L14.9518 19.0586C15.0524 19.0354 15.1346 19.0014 15.2222 18.9466C15.3099 18.8918 15.3891 18.829 15.5494 18.675L18.4874 15.7398C18.7117 15.5156 18.8168 15.4023 18.8862 15.3103L18.9468 15.222C19.0015 15.1345 19.0356 15.0523 19.0588 14.9517L19.0783 14.8465C19.0943 14.7323 19.1001 14.5779 19.1001 14.2608L19.0986 9.50433C19.0959 9.33707 19.0897 9.23499 19.0783 9.15348L19.0588 9.04826C19.0356 8.94766 19.0015 8.86543 18.9468 8.7779C18.8919 8.69016 18.8292 8.61097 18.6751 8.45072L15.74 5.51262C15.5157 5.28836 15.4024 5.18328 15.3104 5.11389L15.2222 5.0533C15.1346 4.99856 15.0524 4.9645 14.9518 4.94131C14.8678 4.92194 14.7841 4.91064 14.6299 4.90488L14.2609 4.89997ZM12.0001 14C12.5524 14 13.0001 14.4477 13.0001 15C13.0001 15.5523 12.5524 16 12.0001 16C11.4478 16 11.0001 15.5523 11.0001 15C11.0001 14.4477 11.4478 14 12.0001 14ZM12.0001 7.99997C12.4972 7.99997 12.9001 8.40292 12.9001 8.89997V12.1C12.9001 12.597 12.4972 13 12.0001 13C11.503 13 11.1001 12.597 11.1001 12.1V8.89997C11.1001 8.40292 11.503 7.99997 12.0001 7.99997Z" fill="#55677D"/>
</g>
</svg>
